<?xml version="1.0" encoding="UTF-8"?><svg id="Ebene_1" xmlns="http://www.w3.org/2000/svg" viewBox="0 0 512.01 74.63"><defs><style>.cls-1{fill:#a1a1a1;}</style></defs><path class="cls-1" d="m138.42.52l20.13,25.89L178.69.52h17.13l-28.89,37,27.98,36.08h-17.12l-19.22-24.84-19.09,24.84h-17.39l28.11-36.08L121.16.52h17.26Zm221.61,73.61c-5.75,0-10.98-1-15.69-3.01-4.71-2.09-8.76-4.88-12.16-8.37-3.34-3.49-6-7.56-7.84-12.03-1.81-4.35-2.74-9.02-2.75-13.73,0-4.79.96-9.41,2.88-13.86,1.9-4.42,4.66-8.42,8.11-11.77,3.53-3.51,7.7-6.31,12.29-8.24,4.71-2,9.85-3.01,15.43-3.01s10.98,1.09,15.69,3.27c4.71,2.09,8.72,4.93,12.03,8.5,3.36,3.42,6.02,7.46,7.84,11.9,1.8,4.31,2.74,8.93,2.75,13.6,0,4.79-.96,9.41-2.88,13.86-1.94,4.39-4.69,8.39-8.11,11.77-3.4,3.4-7.45,6.1-12.16,8.1s-9.85,3.01-15.43,3.01h0Zm-22.49-37c0,3.92.92,7.67,2.75,11.24,1.8,3.45,4.45,6.38,7.71,8.5,3.4,2.18,7.45,3.27,12.16,3.27s8.85-1.13,12.16-3.4c3.32-2.35,5.84-5.27,7.58-8.76,1.74-3.57,2.62-7.23,2.62-10.98s-.92-7.63-2.75-11.11c-1.8-3.46-4.51-6.35-7.85-8.37-3.31-2.18-7.27-3.27-11.89-3.27s-8.89,1.13-12.29,3.4c-3.23,2.17-5.84,5.15-7.58,8.63-1.71,3.36-2.61,7.08-2.61,10.85h0ZM0,73.61L31.9.52h12.94l31.77,73.08h-16.73l-7.32-17.13h-28.37l-7.32,17.13H0ZM38.44,19.74l-10.72,23.01h21.05l-10.33-23.01Zm215.68-10.56l-18.9,15.4h12.34v50.05l6.56-5.28V9.18Zm5.45,55.7l19.23-15.78h-12.69V.19l-6.55,4.56v60.13Zm238.06-46.7c2.18,1.13,3.75,2.09,4.71,2.88l6.8-12.94c-3.4-2.09-7.5-3.97-12.29-5.62-4.71-1.65-9.81-2.48-15.3-2.48s-10.07.87-14.51,2.61c-4.36,1.74-7.85,4.31-10.46,7.71-2.53,3.4-3.79,7.63-3.79,12.68,0,5.67,1.79,10.02,5.36,13.07,3.66,2.96,9.24,5.4,16.74,7.32,6.01,1.57,10.85,3.01,14.51,4.31,3.75,1.22,5.62,3.27,5.62,6.14,0,4.27-4.01,6.41-12.03,6.41-4.01,0-7.8-.48-11.37-1.44-3.57-.96-6.71-2.14-9.41-3.53-2.61-1.4-4.49-2.66-5.62-3.79l-7.06,13.73c4.53,2.88,9.72,5.14,15.56,6.8,5.84,1.66,11.72,2.48,17.65,2.48,5.14,0,9.94-.7,14.38-2.09,4.45-1.48,8.02-3.83,10.72-7.06,2.79-3.31,4.18-7.67,4.18-13.07,0-4.44-1.05-8.02-3.14-10.72-2-2.79-4.92-5.01-8.76-6.67-3.75-1.66-8.19-3.14-13.33-4.44-5.84-1.4-10.29-2.66-13.34-3.79-2.96-1.13-4.45-3.05-4.45-5.75,0-4.62,4.1-6.93,12.29-6.93,3.05,0,6.02.44,8.89,1.31,2.88.78,5.36,1.74,7.45,2.88h0Z"/></svg>