<?xml version="1.0" encoding="UTF-8"?><svg id="Ebene_1" xmlns="http://www.w3.org/2000/svg" viewBox="0 0 700.64 169.74"><defs><style>.cls-1{fill:#a1a1a1;}</style></defs><path class="cls-1" d="m257.71.08c24.66-.67,48.78,7.29,68.2,22.5,9.58,8.01,17.79,17.52,24.3,28.17,11.67-19.81,29.61-35.18,50.97-43.67,26.57-9.6,55.69-9.44,82.15.48,22.6,9.07,43.32,22.28,61.08,38.95,14.2,12.5,27.35,26.25,41.98,38.32,7.52,6.57,16.15,11.77,25.47,15.35,12.98,4.1,27.16.42,36.5-9.47,8.37-9.65,7.77-24.15-1.38-33.07-5.76-4.85-14.35-4.11-19.2,1.65-.28.34-.55.69-.8,1.05-2.84,5.5-2.35,12.12,1.25,17.15-8.4-4.89-13.97-13.49-15-23.15-.73-11.51,6.35-22.09,17.27-25.8,20.8-7.94,44.34-1.21,57.8,16.53,10.72,17.2,14.64,37.77,11,57.7-2.62,18.85-12.91,35.78-28.42,46.8-22.37,14.44-48.74,21.44-75.33,20-25.17-.86-50-6.19-73.3-15.75-38.95-15.65-75.4-37.3-115.62-49.8-13.96-3.9-28.16-6.93-42.5-9.08-10.75.17-21.53-.37-32.25.37-13.13,1.12-26.03,4.06-38.35,8.73-40.9,12.73-77.9,35-117.5,50.6-33.55,14-70.41,18.11-106.23,11.85-20.37-3.37-39.05-13.39-53.12-28.5C5.34,124.36-.53,107,.21,89.28c-1.33-16.8,3.61-33.49,13.88-46.85,10.5-12.12,26.2-18.45,42.18-17,10.32.28,20.02,5.02,26.58,13,4.5,6.71,5.63,15.12,3.05,22.78-2.93,6.63-7.77,12.24-13.9,16.1,3.65-4.96,4.15-11.57,1.28-17.02-4.31-6.2-12.84-7.73-19.04-3.41-.62.43-1.2.91-1.74,1.44-6.98,7.53-8.49,18.63-3.78,27.75,5.62,9.01,15.21,14.8,25.8,15.57,15.1-.43,29.44-6.71,40-17.5,22.23-21.59,45.85-41.71,70.7-60.22C206.49,8.96,231.72.67,257.71.08Z"/></svg>