<?xml version="1.0" encoding="UTF-8"?><svg id="Ebene_1" xmlns="http://www.w3.org/2000/svg" viewBox="0 0 2482.16 829.2"><defs><style>.cls-1{fill:#a1a1a1;fill-rule:evenodd;}</style></defs><path class="cls-1" d="m476.1,223.06l-.8-223.06h-124.47l.8,223.06,62.23,85.45,62.23-85.45Zm-124.47,382.29v223.85h124.47v-223.85l-62.23-85.45-62.23,85.45Z"/><path class="cls-1" d="m476.1,605.74l131.1,180.86,100.32-72.98-131.1-180.86-100.32-32.38v105.36Zm-124.47-382.29L219.74,42.59l-100.32,72.98,131.1,180.73,101.11,32.38v-105.23Z"/><path class="cls-1" d="m250.52,296.44L38.22,227.57,0,345.27l212.31,69.66,100.32-33.17-62.1-85.32Zm263.66,150.87l62.23,85.45,212.31,68.87,38.22-117.7-212.31-68.87-100.45,32.24Z"/><path class="cls-1" d="m614.5,415l212.31-69.66-38.22-117.7-212.31,68.87-62.23,85.45,100.45,33.04Zm-402.19,0L0,483.87l38.22,117.7,212.31-68.87,62.23-85.45-100.45-32.24Z"/><path class="cls-1" d="m250.52,532.76l-131.1,180.86,100.32,72.98,131.9-180.86v-105.36l-101.11,32.38Zm325.89-236.33l131.1-180.86-100.32-72.98-131.1,180.73v105.36l100.32-32.24Z"/><path class="cls-1" d="m1291.24,211.38v290.2c0,63.83-52.28,116.11-116.11,116.11v-58.12c32.38,0,58.12-25.74,58.12-58.12V211.38h57.99Zm1059.95,58.12h130.97v-57.99h-319.26v57.99h130.17v348.32h58.12v-348.32Zm-363.31-58.12v290.2c0,32.38-25.74,58.12-58.12,58.12s-58.12-25.74-58.12-58.12v-174.09c0-63.83-52.28-116.11-116.11-116.11s-116.11,52.28-116.11,116.11v174.23c0,32.38-25.74,58.12-58.12,58.12s-58.12-25.74-58.12-58.12V211.38h-58.12v290.2c0,63.83,52.28,116.11,116.11,116.11s116.11-52.28,116.11-116.11v-174.09c0-32.38,25.74-58.12,58.12-58.12s58.12,25.74,58.12,58.12v174.23c0,63.83,52.28,116.11,116.11,116.11s116.11-52.28,116.11-116.11V211.38h-57.85Z"/></svg>