<?xml version="1.0" encoding="UTF-8"?><svg id="Ebene_1" xmlns="http://www.w3.org/2000/svg" viewBox="0 0 53.43 118.89"><defs><style>.cls-1{fill:#a1a1a1;fill-rule:evenodd;}</style></defs><path class="cls-1" d="m53.21,52.73c-.37-4.79-1.5-9.41-3.06-13.93-3.24-10.1-8.45-19.05-15.78-26.74-1.85-1.95-3.92-3.73-5.21-6.15-.82-1.53-1.6-3.09-2.39-4.63l-.51-1.27c-.08.29-.14.4-.14.5-.06,2.52-1.49,4.22-3.27,5.82-2,1.79-3.86,3.74-5.78,5.62l-5.9,7.76c-1.59,2.92-3.18,5.85-4.77,8.77l-3.19,8.62-.1.13C1.35,42.99.49,48.92.06,54.91c-.16,2.25.02,4.53.15,6.8.18,3.24.74,6.42,1.59,9.54,3.06,11.37,9.28,20.81,17.77,28.82,1.58,1.49,3.2,2.84,4.85,4.26.28-.96.51-1.93.76-2.89.26-.96.51-1.92.69-2.88-.17.96-.37,1.92-.56,2.88l-.83,2.89.74,2.5.68,3.88.33,4.05c0,.82-.04,1.65.01,2.47.01.21.29.4.44.61l1.38.48,1.43.56-.25-3.6v-3.55s.48-5.4.48-5.4l.36-1.18,1.03-1.82c1.27-1.02,2.63-1.95,3.78-3.08,2.09-2.05,4.18-4.13,6.04-6.38,2.43-2.92,4.51-6.11,6.19-9.52,1.12-2.28,2.18-4.61,3.05-7,.77-2.1,1.25-4.32,1.85-6.48.05-.16.13-.31.16-.47,1.25-5.84,1.46-11.74,1-17.68Zm-23.6,49.37l-.81-1.76.81,1.76,1.18,1.01-1.18-1.01Z"/></svg>