<?xml version="1.0" encoding="UTF-8"?><svg id="Ebene_1" xmlns="http://www.w3.org/2000/svg" viewBox="0 0 127.04 58.7"><defs><style>.cls-1{fill:#a1a1a1;}</style></defs><path class="cls-1" d="m37.32,0l-.74,23.96c.73-.36,1.48-.67,2.26-.93.86-.29,1.72-.55,2.6-.77.9-.23,1.81-.41,2.72-.53.87-.12,1.75-.18,2.63-.18,1.2,0,2.38.13,3.53.4,1.13.25,2.19.74,3.13,1.42.93.68,1.68,1.58,2.26,2.7.58,1.11.87,2.51.87,4.21,0,1.32-.22,2.51-.65,3.56-.43,1.05-1.02,1.93-1.76,2.63-.75.71-1.63,1.26-2.6,1.61-1.01.37-2.08.56-3.16.56-1.98,0-3.7-.53-5.14-1.58-1.44-1.05-2.48-2.44-3.1-4.18l-.08.03-5.38,5.04c1.07,1.76,2.51,3.28,4.22,4.44,2.52,1.71,5.61,2.57,9.28,2.57,2.19,0,4.25-.35,6.19-1.05,1.94-.7,3.63-1.71,5.08-3.04,1.44-1.32,2.59-2.94,3.44-4.86.85-1.92,1.27-4.1,1.27-6.53,0-2.23-.38-4.19-1.15-5.91-.76-1.71-1.83-3.16-3.19-4.34-1.36-1.18-2.96-2.07-4.8-2.69-1.84-.62-3.83-.93-5.97-.93-.78,0-1.66.04-2.63.12-.97.08-1.81.23-2.51.43l.43-9.48h17.9V0h-24.95Zm52.13,12.7v33.25c0,.87-.04,1.68-.12,2.44-.09.76-.27,1.43-.56,2.02-.28.56-.71,1.03-1.24,1.36-.54.33-1.24.5-2.11.5-.69,0-1.37-.09-2.04-.25l-.62,6.32c.37.08.87.17,1.48.25.62.08,1.24.12,1.86.12,2.23,0,4.04-.35,5.42-1.05,1.38-.7,2.48-1.64,3.29-2.82.81-1.18,1.35-2.56,1.64-4.15.3-1.67.44-3.35.44-5.05V12.7h-7.43Zm-71.87.55c-1.36,0-2.59.15-3.68.46-1.02.28-2.01.68-2.94,1.18-.87.48-1.6,1.01-2.2,1.61-.55.53-1.03,1.13-1.45,1.76h-.19v-4.15H0v44.58h7.43v-18.82h.12c.95,1.49,2.3,2.67,4.06,3.53,1.75.87,3.68,1.3,5.78,1.3,2.27,0,4.31-.43,6.1-1.27,1.8-.84,3.33-1.98,4.58-3.4,1.26-1.42,2.23-3.09,2.91-5.02.68-1.92,1.02-3.97,1.02-6.16s-.35-4.23-1.06-6.13c-.7-1.9-1.69-3.55-2.97-4.95-1.28-1.41-2.84-2.53-4.58-3.31-1.77-.8-3.72-1.21-5.82-1.21h0Zm98.31,0c-1.46,0-2.92.18-4.34.56-1.35.35-2.63.92-3.78,1.7-1.11.76-2.03,1.77-2.7,2.94-.68,1.2-1.02,2.62-1.02,4.27,0,1.4.25,2.58.74,3.53.48.93,1.15,1.75,1.98,2.39.86.66,1.81,1.18,2.82,1.55,1.06.39,2.15.71,3.25.96,2.27.54,3.97,1.07,5.11,1.61,1.13.54,1.7,1.42,1.7,2.66,0,.66-.14,1.21-.43,1.67-.29.45-.68.82-1.15,1.08-.48.27-1,.47-1.55.59-.54.12-1.09.19-1.64.19-1.61,0-3.07-.35-4.4-1.05-1.32-.7-2.39-1.59-3.22-2.66l-4.89,4.58c1.44,1.57,3.26,2.78,5.45,3.62,2.15.84,4.44,1.27,6.75,1.27,1.61,0,3.17-.18,4.68-.53,1.51-.35,2.83-.92,3.96-1.7,1.14-.79,2.08-1.84,2.73-3.07.68-1.26,1.02-2.8,1.02-4.61,0-1.44-.29-2.67-.87-3.68-.57-1-1.34-1.86-2.26-2.54-.95-.69-1.99-1.25-3.09-1.64-1.1-.4-2.23-.73-3.38-.99-2.11-.5-3.71-.98-4.8-1.45-1.09-.48-1.64-1.29-1.64-2.45s.49-1.98,1.48-2.47c.99-.5,2.08-.75,3.28-.75,1.36,0,2.62.32,3.78.96,1.16.64,2.06,1.39,2.73,2.26l4.83-4.27c-1.2-1.53-2.82-2.66-4.86-3.4-2.01-.74-4.14-1.11-6.28-1.11ZM15.91,19.32c1.44,0,2.7.28,3.78.84,1.04.53,1.95,1.28,2.66,2.2.7.92,1.24,1.96,1.58,3.06.34,1.11.52,2.27.52,3.44,0,1.18-.18,2.34-.52,3.47-.33,1.12-.87,2.17-1.58,3.1-.7.91-1.59,1.65-2.66,2.23-1.07.58-2.33.87-3.78.87-1.36,0-2.58-.28-3.65-.84-1.06-.54-1.99-1.29-2.75-2.2-.76-.9-1.35-1.94-1.74-3.06-.39-1.11-.58-2.27-.59-3.44,0-1.18.2-2.35.59-3.47.76-2.28,2.37-4.19,4.49-5.32,1.07-.58,2.29-.87,3.65-.87Zm59.43,13.62v4.61l-4.46-1.44-.87,2.68,4.44,1.6-2.74,3.75,2.24,1.71,2.81-3.71,2.88,3.81,2.31-1.67-2.74-3.88,4.41-1.5-.87-2.67-4.43,1.34v-4.61h-2.99Z"/></svg>