<?xml version="1.0" encoding="UTF-8"?><svg id="Ebene_1" xmlns="http://www.w3.org/2000/svg" viewBox="0 0 125.2 111.8"><defs><style>.cls-1{fill:#a1a1a1;}</style></defs><circle class="cls-1" cx="62.6" cy="55.9" r="11.4"/><path class="cls-1" d="m105.9,37.1c-2.2-.8-4.5-1.6-6.9-2.3.6-2.4,1.1-4.8,1.5-7.1,2.1-13.2-.2-22.5-6.6-26.1-1.9-1.1-4-1.6-6.4-1.6-7,0-15.9,5.2-24.9,13.9C53.6,5.2,44.7,0,37.7,0c-2.4,0-4.5.5-6.4,1.6-6.4,3.7-8.7,13-6.6,26.1.4,2.3.9,4.7,1.5,7.1-2.4.7-4.7,1.4-6.9,2.3C6.8,41.9,0,48.5,0,55.9s6.9,14,19.3,18.8c2.2.8,4.5,1.6,6.9,2.3-.6,2.4-1.1,4.8-1.5,7.1-2.1,13.2.2,22.5,6.6,26.1,1.9,1.1,4,1.6,6.4,1.6,7.1,0,16-5.2,24.9-13.9,9,8.7,17.9,13.9,24.9,13.9,2.4,0,4.5-.5,6.4-1.6,6.4-3.7,8.7-13,6.6-26.1-.4-2.3-.9-4.7-1.5-7.1,2.4-.7,4.7-1.4,6.9-2.3,12.5-4.8,19.3-11.4,19.3-18.8s-6.8-14-19.3-18.8Zm-14.8-30.5c4.1,2.4,5.5,9.8,3.8,20.3-.3,2.1-.8,4.3-1.4,6.6-5.2-1.2-10.7-2-16.5-2.5-3.4-4.8-6.9-9.1-10.4-13,7.4-7.3,14.9-12.3,21-12.3,1.3,0,2.5.3,3.5.9Zm-11.2,59.3c-1.8,3.2-3.9,6.4-6.1,9.6-3.7.3-7.4.4-11.2.4s-7.6-.1-11.2-.4c-2.2-3.2-4.2-6.4-6-9.6-1.9-3.3-3.7-6.7-5.3-10,1.6-3.3,3.4-6.7,5.3-10,1.8-3.2,3.9-6.4,6.1-9.6,3.7-.3,7.4-.4,11.2-.4s7.6.1,11.2.4c2.2,3.2,4.2,6.4,6,9.6,1.9,3.3,3.7,6.7,5.3,10-1.7,3.3-3.4,6.6-5.3,10Zm8.3-3.3c1.5,3.5,2.7,6.9,3.8,10.3-3.4.8-7,1.4-10.8,1.9,1.2-1.9,2.5-3.9,3.6-6,1.2-2.1,2.3-4.2,3.4-6.2Zm-25.6,27.1c-2.4-2.6-4.7-5.4-6.9-8.3,2.3.1,4.6.2,6.9.2s4.6-.1,6.9-.2c-2.2,2.9-4.5,5.7-6.9,8.3Zm-18.6-15c-3.8-.5-7.4-1.1-10.8-1.9,1.1-3.3,2.3-6.8,3.8-10.3,1.1,2,2.2,4.1,3.4,6.1,1.2,2.2,2.4,4.1,3.6,6.1Zm-7-25.5c-1.5-3.5-2.7-6.9-3.8-10.3,3.4-.8,7-1.4,10.8-1.9-1.2,1.9-2.5,3.9-3.6,6-1.2,2.1-2.3,4.2-3.4,6.2Zm25.6-27.1c2.4,2.6,4.7,5.4,6.9,8.3-2.3-.1-4.6-.2-6.9-.2s-4.6.1-6.9.2c2.2-2.9,4.5-5.7,6.9-8.3Zm22.2,21l-3.6-6c3.8.5,7.4,1.1,10.8,1.9-1.1,3.3-2.3,6.8-3.8,10.3-1.1-2.1-2.2-4.2-3.4-6.2ZM30.3,26.9c-1.7-10.5-.3-17.9,3.8-20.3,1-.6,2.2-.9,3.5-.9,6,0,13.5,4.9,21,12.3-3.5,3.8-7,8.2-10.4,13-5.8.5-11.3,1.4-16.5,2.5-.6-2.3-1-4.5-1.4-6.6ZM5.6,55.9c0-4.7,5.7-9.7,15.7-13.4,2-.8,4.2-1.5,6.4-2.1,1.6,5,3.6,10.3,6,15.6-2.4,5.3-4.5,10.5-6,15.5-13.8-4-22.1-10-22.1-15.6Zm28.5,49.3c-4.1-2.4-5.5-9.8-3.8-20.3.3-2.1.8-4.3,1.4-6.6,5.2,1.2,10.7,2,16.5,2.5,3.4,4.8,6.9,9.1,10.4,13-7.4,7.3-14.9,12.3-21,12.3-1.3,0-2.5-.3-3.5-.9Zm60.8-20.3c1.7,10.5.3,17.9-3.8,20.3-1,.6-2.2.9-3.5.9-6,0-13.5-4.9-21-12.3,3.5-3.8,7-8.2,10.4-13,5.8-.5,11.3-1.4,16.5-2.5.6,2.3,1,4.5,1.4,6.6Zm9-15.6c-2,.8-4.2,1.5-6.4,2.1-1.6-5-3.6-10.3-6-15.6,2.4-5.3,4.5-10.5,6-15.5,13.8,4,22.1,10,22.1,15.6,0,4.7-5.8,9.7-15.7,13.4Z"/></svg>