<?xml version="1.0" encoding="UTF-8"?><svg id="Ebene_1" xmlns="http://www.w3.org/2000/svg" viewBox="0 0 1997.5 1999.97"><defs><style>.cls-1{fill:#333;}.cls-2{fill:#a1a1a1;}</style></defs><path class="cls-2" d="m1990.91,296l-938.3,1677.9c-19.4,34.6-69.1,34.8-88.8.4L6.81,296.2c-21.4-37.6,10.7-83.1,53.3-75.5l939.3,167.9c6,1.1,12.1,1.1,18.1,0l919.7-167.6c42.4-7.8,74.7,37.4,53.7,75h0Z"/><path class="cls-1" d="m1446.91.5l-694.4,136.1c-11.4,2.2-19.9,11.9-20.6,23.5l-42.7,721.4c-1,17,14.6,30.2,31.2,26.4l193.3-44.6c18.1-4.2,34.4,11.8,30.7,30l-57.4,281.1c-3.9,18.9,13.9,35.1,32.4,29.5l119.4-36.3c18.5-5.6,36.3,10.6,32.4,29.6l-91.3,441.8c-5.7,27.6,31,42.7,46.4,19l10.2-15.8,565.9-1129.2c9.5-18.9-6.9-40.5-27.6-36.5l-199,38.4c-18.7,3.6-34.6-13.8-29.3-32.1l129.9-450.3c5.2-18.2-10.8-35.7-29.5-32h0Z"/></svg>