<?xml version="1.0" encoding="UTF-8"?><svg id="Ebene_2" xmlns="http://www.w3.org/2000/svg" viewBox="0 0 1024 1024"><defs><style>.cls-1{fill:#f8a145;}</style></defs><path class="cls-1" d="m318.49,272.57H8.71c-5.7,0-8.04,4.04-5.18,8.98l144.52,250.32c2.85,4.94,7.52,13.02,10.37,17.96l144.52,250.32c2.85,4.94,7.52,4.94,10.37,0l144.52-250.32,10.37-17.96,144.52-250.32c2.85-4.94.52-8.98-5.18-8.98h-289.05Z"/><path class="cls-1" d="m699.16,631.63h282.34c5.5,0,7.75-3.9,5-8.66l-131.17-227.19c-2.75-4.76-7.25-12.56-10-17.32l-131.17-227.19c-2.75-4.76-7.25-4.76-10,0l-131.17,227.19c-2.75,4.76-7.25,12.56-10,17.32l-131.17,227.19c-2.75,4.76-.5,8.66,5,8.66h262.34Z"/><path class="cls-1" d="m486.3,261.1h123.5c4.73,0,6.67-3.36,4.3-7.45l-53.14-92.05c-2.37-4.1-6.24-10.81-8.61-14.91l-53.14-92.05c-2.37-4.1-6.24-4.1-8.61,0l-53.14,92.05-8.61,14.91-53.14,92.05c-2.37,4.1-.43,7.45,4.3,7.45h106.29-.02Z"/><path class="cls-1" d="m404.94,898.88h143.47c5.5,0,7.75-3.9,5-8.66l-61.73-106.93-10-17.32-61.73-106.93c-2.75-4.76-7.25-4.76-10,0l-61.73,106.93-10,17.32-61.73,106.93c-2.75,4.76-.5,8.66,5,8.66h123.47-.02Z"/><path class="cls-1" d="m629.41,643.69h-192.74c-5.5,0-7.75,3.9-5,8.66l86.37,149.6c2.75,4.76,7.25,12.56,10,17.32l86.37,149.6c2.75,4.76,7.25,4.76,10,0l86.37-149.6c2.75-4.76,7.25-12.56,10-17.32l86.37-149.6c2.75-4.76.5-8.66-5-8.66h-172.74Z"/><path class="cls-1" d="m638.61,86.47h-97.34c-4.73,0-6.67,3.36-4.3,7.45l40.06,69.39c2.37,4.1,6.24,10.81,8.61,14.91l40.06,69.39c2.37,4.1,6.24,4.1,8.61,0l40.06-69.39c2.37-4.1,6.24-10.81,8.61-14.91l40.06-69.39c2.37-4.1.43-7.45-4.3-7.45h-80.13,0Z"/><path class="cls-1" d="m233.6,830.73h-72.67c-5.5,0-7.75,3.9-5,8.66l26.34,45.62c2.75,4.76,7.25,12.56,10,17.32l26.34,45.62c2.75,4.76,7.25,4.76,10,0l26.34-45.62,10-17.32,26.34-45.62c2.75-4.76.5-8.66-5-8.66h-52.69Z"/></svg>