<?xml version="1.0" encoding="UTF-8"?><svg id="Ebene_1" xmlns="http://www.w3.org/2000/svg" viewBox="0 0 1024 1024"><defs><style>.cls-1{fill:#f07900;}</style></defs><path class="cls-1" d="m186.04,819.12h104.09c4.99,0,7.02-3.53,4.53-7.85l-42.98-74.44-9.06-15.7-42.98-74.44c-2.49-4.31-6.57-4.31-9.06,0l-42.98,74.44-9.06,15.7-42.98,74.44c-2.49,4.31-.45,7.85,4.53,7.85h85.96,0Z"/><path class="cls-1" d="m922.44,272.6h-113.08c-5.5,0-7.75,3.9-5,8.66l46.54,80.61c2.75,4.76,7.25,12.56,10,17.32l46.54,80.61c2.75,4.76,7.25,4.76,10,0l46.54-80.61c2.75-4.76,7.25-12.56,10-17.32l46.54-80.61c2.75-4.76.5-8.66-5-8.66h-93.08,0Z"/></svg>