<?xml version="1.0" encoding="UTF-8"?><svg xmlns="http://www.w3.org/2000/svg" viewBox="0 0 1552.25 1036.44"><defs><style>.cls-1{fill:#fff;}.cls-2{fill:#f07900;}</style></defs><g id="Ebene_1"><path class="cls-1" d="m1326,525.46v504.81c0,5.5-3.9,7.75-8.66,5l-419.86-242.41-17.32-10-419.86-242.41c-4.76-2.75-4.76-7.25,0-10l419.86-242.41,17.32-10,419.86-242.41c4.76-2.75,8.66-.5,8.66,5v484.81Z"/><path class="cls-2" d="m1341.33,545.46v-124.71c0-5.5,3.9-7.75,8.66-5l90.68,52.35,17.32,10,90.68,52.35c4.76,2.75,4.76,7.25,0,10l-90.68,52.35-17.32,10-90.68,52.35c-4.76,2.75-8.66.5-8.66-5v-104.71Z"/></g><g id="Ebene_3"><path class="cls-2" d="m442.5,630.26v-73.57c0-5.5,3.9-7.75,8.66-5l46.39,26.78,17.32,10,46.39,26.78c4.76,2.75,4.76,7.25,0,10l-46.39,26.78-17.32,10-46.39,26.78c-4.76,2.75-8.66.5-8.66-5v-53.57Z"/><path class="cls-2" d="m428.37,611.95v73.57c0,5.5-3.9,7.75-8.66,5l-46.39-26.78-17.32-10-46.39-26.78c-4.76-2.75-4.76-7.25,0-10l46.39-26.78,17.32-10,46.39-26.78c4.76-2.75,8.66-.5,8.66,5v53.57Z"/></g></svg>