<?xml version="1.0" encoding="UTF-8"?><svg id="Ebene_1" xmlns="http://www.w3.org/2000/svg" viewBox="0 0 24 24"><defs><style>.cls-1{fill:#a1a1a1;}</style></defs><path class="cls-1" d="m23.73,13.13c.38-.6.2-1.4-.4-1.79-.13-.08-.27-.14-.41-.18.5-.69.37-1.65-.3-2.17-.17-.13-.36-.22-.57-.28.13-.22.13-.49.01-.72-.05-.1-.13-.19-.22-.26.14-.1.24-.24.3-.4.19-.47-.04-1.01-.51-1.2.18-.24.25-.54.2-.83-.1-.58-.65-.97-1.23-.87.08-.26.07-.53-.03-.78-.24-.6-.92-.89-1.52-.65,0-.19-.05-.38-.14-.55-.33-.64-1.11-.89-1.75-.56-.14.07-.26.16-.36.28-.33-.78-1.23-1.16-2.02-.84-.3.12-.56.33-.74.61-.04-.37-.35-.67-.74-.68-.12,0-.23.02-.34.07-.02-.17-.09-.32-.2-.45-.32-.39-.91-.45-1.3-.13-.17-.39-.55-.64-.98-.63h0c-.46,0-.86.29-1.01.73-.19-.19-.43-.31-.7-.34-.64-.08-1.22.38-1.3,1.02-.17-.09-.36-.13-.55-.14h0c-.72-.02-1.31.55-1.33,1.26,0,.15.02.3.07.44-.85-.08-1.6.54-1.7,1.38-.02.18,0,.36.03.53-.21.04-.39.16-.51.34-.06.1-.1.21-.12.33-.16-.07-.33-.09-.5-.06-.5.07-.85.54-.78,1.05-.29-.04-.59.05-.82.24-.45.38-.51,1.05-.13,1.5-.26.06-.49.21-.65.42-.39.51-.3,1.25.21,1.64-.16.1-.3.24-.41.4-.38.6-.21,1.41.4,1.79.13.08.27.14.41.17-.5.69-.37,1.65.31,2.17.17.13.37.23.59.28h-.02c-.13.22-.13.49,0,.71.05.1.13.19.23.26-.14.1-.24.24-.3.4-.19.47.04,1.01.51,1.2-.18.24-.26.54-.21.84.1.58.66.97,1.23.86-.08.25-.06.52.03.77.24.6.92.9,1.52.66,0,.19.06.38.14.55.33.64,1.11.89,1.74.56.14-.07.26-.16.36-.27.34.78,1.24,1.15,2.02.83.31-.12.57-.34.74-.62h0c.04.39.35.68.73.69.12,0,.24-.02.34-.08.02.17.09.32.2.45.32.39.91.45,1.3.13.12.28.35.49.64.58.56.19,1.16-.11,1.35-.67.19.19.43.31.7.34.64.07,1.22-.39,1.3-1.03.17.09.36.14.55.14.72.02,1.31-.55,1.33-1.26,0-.15-.02-.3-.06-.44.85.07,1.6-.54,1.7-1.38.02-.18.01-.36-.03-.54.21-.03.39-.16.51-.34.06-.1.1-.21.12-.33.17.07.36.09.54.06.5-.1.83-.58.73-1.08v.05c.3.04.6-.05.82-.24.45-.38.5-1.05.12-1.5.29-.07.55-.26.71-.51.32-.51.21-1.18-.27-1.55.16-.1.3-.24.41-.41l.02.03ZM13.01,4.98c.28.04.56,0,.8-.13.31-.16.55-.44.65-.78h0c.43.31.99.38,1.48.18.28-.11.52-.3.69-.54.34.58,1.07.8,1.68.51.01.15.06.29.12.42.25.48.79.73,1.32.6-.06.25-.03.51.09.74.13.26.37.46.65.54-.17.28-.18.62-.04.91.09.17.22.31.39.4-.04.04-.07.08-.1.13-.07-.08-.16-.15-.25-.2-.45-.29-1.01-.27-1.43.02-.1-.2-.25-.38-.44-.5h0c-.56-.36-1.3-.19-1.66.37-.06-.07-.13-.13-.21-.18h0c-.5-.32-1.17-.17-1.49.34-.07.11-.12.23-.15.36h0c-.4-.26-.94-.14-1.19.27-.11.17-.15.37-.13.56-.14-.04-.29-.03-.43.01-.41.13-.64.57-.51.99-.16,0-.31.09-.4.23-.03.05-.05.11-.07.17-.26-.06-.53-.05-.79.02,0-.04-.02-.08-.04-.12-.04-.08-.1-.15-.18-.19.27-.23.34-.62.18-.94-.07-.14-.19-.26-.33-.33.3-.26.38-.69.2-1.05-.03-.05-.06-.11-.1-.15.05-.02.1-.04.15-.07.5-.26.72-.86.51-1.38.14-.02.27-.06.39-.12.39-.2.64-.6.65-1.05v-.04Zm-5.93-.13c.04-.3-.01-.6-.14-.87.67-.02,1.22-.56,1.25-1.23.14.06.28.09.43.09.54,0,1.02-.34,1.16-.86.19.17.43.27.69.27.29,0,.58-.11.78-.32h0c.16.28.46.45.78.46.19,0,.38-.05.54-.16.03.09.07.17.13.25-.02,0-.05.02-.07.03-.46.24-.74.72-.7,1.24-.23-.02-.45.03-.65.13-.59.3-.82,1.03-.51,1.62h0c-.09.02-.19.06-.27.1-.53.27-.74.92-.46,1.45.06.12.14.22.24.31.02-.01.05-.02.07-.03-.02,0-.05.02-.07.03-.43.22-.6.74-.38,1.17.09.18.24.32.42.4-.1.1-.18.24-.21.38-.1.42.17.84.59.94-.08.14-.08.32,0,.46.03.07.08.12.14.17-.18.21-.31.47-.36.74-.14-.07-.31-.06-.45.02-.08-.34-.38-.59-.74-.6-.16,0-.32.04-.45.13-.09-.38-.42-.66-.83-.67-.06,0-.12,0-.18.01,0-.05.01-.11.01-.16.02-.56-.4-1.05-.97-1.1.05-.13.08-.26.08-.4,0-.46-.24-.87-.62-1.08.17-.22.27-.49.27-.77.01-.35-.12-.69-.36-.94.47-.24.79-.7.85-1.22h-.01Zm-4.56,7.36c.33-.59.15-1.33-.41-1.71.12-.09.22-.19.3-.32.3-.47.22-1.06-.14-1.44.24-.07.45-.23.59-.44.16-.26.2-.56.13-.84.32,0,.63-.15.8-.43.1-.16.15-.35.15-.54.04.01.08.02.12.02-.05.14-.08.28-.08.42,0,.52.28,1,.75,1.22-.12.19-.19.4-.2.63h0c-.01.66.51,1.21,1.17,1.22h0c-.03.09-.04.19-.04.28-.01.6.46,1.09,1.05,1.1.13,0,.26-.01.39-.06h0c0,.48.37.87.85.88.2,0,.39-.06.55-.18.04.14.12.26.23.35.32.29.82.26,1.11-.07.09.14.24.22.41.22.11,0,.21-.03.29-.09h0c.09.25.23.46.42.63-.17.08-.29.25-.29.44-.34-.11-.71.02-.9.32-.08.13-.13.29-.12.45-.38-.12-.79.03-1,.36-.03.05-.06.11-.08.17-.04-.04-.09-.07-.13-.1-.48-.3-1.11-.19-1.44.26-.08-.11-.19-.2-.3-.27-.37-.24-.85-.25-1.24-.04-.1-.26-.28-.48-.52-.62-.31-.2-.66-.25-.99-.18.04-.53-.19-1.04-.6-1.36-.23-.18-.52-.3-.81-.33l-.02.05Zm8.5,6.82c-.27-.04-.56,0-.8.13-.31.16-.54.43-.65.77-.42-.29-.97-.37-1.48-.17-.28.11-.52.3-.69.54-.34-.58-1.08-.8-1.69-.51-.01-.15-.05-.29-.12-.42-.25-.48-.79-.73-1.32-.61.06-.25.03-.51-.09-.74-.13-.26-.37-.46-.65-.54.17-.27.19-.62.04-.91-.09-.17-.23-.31-.4-.4.04-.04.07-.08.1-.12.07.08.16.15.25.2.45.29,1.01.26,1.43-.02.1.2.25.37.44.49.56.36,1.3.19,1.66-.37h0c.06.06.14.13.22.18h0c.5.32,1.17.17,1.49-.33.07-.11.12-.23.15-.36.4.26.94.14,1.2-.26.11-.17.15-.37.13-.56.14.03.28.03.42-.01.41-.13.64-.57.51-.98.16,0,.32-.09.4-.23.07-.1.09-.23.07-.35.12.03.25.04.38.04s.27-.02.4-.05c0,.1,0,.2.06.28.04.08.1.15.18.19-.26.24-.34.62-.18.94.07.14.19.26.33.33-.3.26-.38.69-.2,1.04.03.06.06.11.11.16-.05.02-.1.04-.15.06-.5.26-.72.86-.5,1.38-.14.02-.27.06-.39.12-.39.2-.65.61-.65,1.05v.04Zm6.78-1.09c-.45.23-.79.68-.85,1.22-.04.3.01.6.14.87-.69.02-1.23.58-1.25,1.26v-.03c-.14-.06-.28-.09-.43-.09-.54-.01-1.02.35-1.16.87-.19-.17-.43-.27-.69-.28-.29,0-.58.11-.78.32-.16-.28-.46-.45-.78-.46-.19,0-.38.05-.54.16h0c-.03-.09-.07-.17-.13-.25.5-.22.81-.73.78-1.28.22.02.45-.03.65-.13h0c.59-.3.82-1.03.52-1.62h0c.09-.03.18-.06.26-.1h.01c.52-.27.73-.92.45-1.45-.06-.12-.14-.22-.23-.31.43-.22.6-.74.38-1.17-.09-.18-.24-.32-.42-.4.1-.1.17-.23.2-.37.1-.42-.17-.84-.59-.94.08-.14.08-.32,0-.47-.05-.1-.13-.17-.23-.22.2-.19.35-.44.43-.7h0c.07.04.14.06.21.06.09,0,.18-.02.26-.06.08.34.38.59.74.6.16,0,.32-.04.45-.13.09.39.43.66.82.67.06,0,.12,0,.18-.02,0,.06-.01.11-.01.17-.01.56.41,1.04.97,1.1-.21.56.02,1.18.53,1.47-.17.22-.27.49-.27.77,0,.35.12.69.37.94h0Zm3.97-2.67c-.24.07-.46.23-.59.44-.16.25-.21.55-.13.84-.32,0-.63.15-.8.43-.1.16-.15.35-.15.54l-.12-.02h0c.05-.13.08-.27.09-.42.01-.52-.29-1-.76-1.22.12-.19.19-.4.2-.63.02-.66-.51-1.21-1.17-1.23.03-.09.04-.18.04-.28h0c.01-.6-.46-1.09-1.06-1.1-.13,0-.26.02-.38.06h0c0-.48-.37-.88-.85-.89-.2,0-.39.06-.55.18-.04-.14-.12-.26-.23-.36-.33-.28-.82-.25-1.11.07-.09-.14-.24-.22-.4-.23-.08,0-.15.01-.22.05-.07-.25-.19-.48-.37-.66.03-.03.06-.06.09-.1.05-.08.07-.16.07-.25.34.11.71-.03.9-.33.09-.13.13-.29.12-.45.38.12.79-.02,1-.36.03-.05.06-.11.08-.17.04.04.09.07.13.1.48.3,1.11.19,1.44-.26.08.11.19.2.3.28.37.24.85.25,1.24.03.1.26.28.48.52.63.29.19.65.25.99.17-.04.53.19,1.04.6,1.36h0c.24.18.52.3.82.32-.33.59-.15,1.34.41,1.71-.12.09-.22.19-.3.32-.29.46-.23,1.05.14,1.44h0Z"/></svg>