<?xml version="1.0" encoding="UTF-8"?><svg id="Ebene_1" xmlns="http://www.w3.org/2000/svg" viewBox="0 0 24 24"><defs><style>.cls-1{fill:#f07900;}</style></defs><path class="cls-1" d="M1.07,.14C.48,.14,0,.62,0,1.21V22.79c0,.59,.48,1.07,1.07,1.07H22.93c.59,0,1.07-.48,1.07-1.07h0V1.21c0-.59-.48-1.07-1.07-1.07h0s-21.86,0-21.86,0ZM10.81,1.96c.36,0,.68,.21,.83,.54,.33-.28,.83-.23,1.1,.11,.09,.11,.15,.24,.17,.39,.09-.04,.19-.06,.29-.06,.33,0,.59,.26,.62,.58,.15-.23,.37-.41,.62-.51,.67-.27,1.44,.04,1.72,.71,.09-.1,.19-.18,.31-.24,.54-.28,1.21-.06,1.48,.48,.07,.15,.12,.31,.12,.47,.51-.21,1.09,.04,1.29,.55,.09,.21,.1,.45,.03,.66,.49-.09,.96,.24,1.05,.74,.04,.25-.02,.5-.17,.7,.4,.16,.6,.62,.43,1.02-.05,.13-.14,.25-.26,.34,.08,.06,.14,.14,.19,.22,.1,.19,.1,.42-.01,.61,.17,.04,.34,.12,.48,.23,.57,.44,.68,1.26,.26,1.84,.12,.03,.24,.08,.35,.15,.51,.33,.66,1,.34,1.52-.09,.14-.2,.26-.34,.34,.4,.31,.5,.89,.23,1.32-.14,.22-.36,.37-.6,.43,.32,.38,.28,.95-.1,1.27-.19,.16-.45,.24-.7,.21,0-.01,0-.03,0-.04,.08,.42-.19,.84-.62,.92-.15,.03-.31,.01-.46-.05-.01,.1-.04,.2-.1,.28-.09,.15-.25,.26-.43,.29,.03,.15,.04,.3,.02,.46-.08,.72-.72,1.24-1.44,1.17,.04,.12,.06,.25,.05,.38-.02,.61-.52,1.09-1.13,1.07-.16,0-.32-.05-.47-.12-.06,.55-.56,.94-1.1,.87-.23-.03-.44-.13-.59-.29-.16,.47-.67,.73-1.14,.57-.24-.08-.44-.26-.54-.49-.33,.28-.83,.23-1.1-.11-.09-.11-.15-.24-.17-.39-.09,.04-.19,.07-.29,.06-.32,0-.59-.26-.62-.58h0c-.15,.23-.37,.41-.63,.52-.67,.27-1.43-.05-1.72-.71-.09,.09-.19,.17-.31,.23-.54,.28-1.2,.06-1.48-.48-.08-.15-.12-.31-.12-.47-.51,.2-1.09-.05-1.29-.56-.08-.21-.09-.44-.03-.65-.49,.09-.96-.24-1.05-.73-.04-.25,.02-.51,.17-.71-.4-.16-.6-.62-.43-1.02,.05-.13,.14-.25,.26-.34-.08-.06-.15-.14-.19-.22-.1-.19-.1-.42,.01-.61h.02c-.18-.04-.35-.12-.5-.24-.57-.44-.69-1.26-.26-1.85-.12-.03-.24-.08-.35-.15-.51-.33-.66-1.01-.34-1.52,.09-.14,.21-.25,.35-.34-.43-.33-.52-.96-.18-1.39,.14-.18,.33-.31,.56-.36-.32-.38-.27-.95,.11-1.27,.19-.16,.44-.24,.7-.21-.06-.43,.23-.83,.66-.89,.14-.02,.29,0,.42,.05,.01-.1,.04-.2,.1-.28,.1-.15,.25-.26,.43-.29-.03-.15-.04-.3-.03-.45,.08-.72,.72-1.24,1.45-1.17-.04-.12-.06-.25-.06-.38,.02-.61,.52-1.09,1.13-1.07,0,0,0,0,0,0,.16,0,.32,.04,.47,.12,.06-.55,.56-.93,1.1-.87,.22,.03,.43,.13,.59,.29,.12-.37,.47-.62,.86-.62h0ZM3.68,7.52s0,.03,0,.04v-.04s0,0,0,0Zm13.82,12.09s0,0,0,0h-.04s.03,0,.04,0ZM13.82,3.51s0,0,0,.01h0Zm-2.37-.03h0c-.17,.18-.42,.28-.66,.27-.22,0-.42-.09-.58-.23-.12,.44-.53,.74-.99,.73-.12,0-.25-.03-.36-.07-.03,.57-.49,1.03-1.06,1.05,.11,.23,.15,.48,.12,.74-.05,.44-.32,.83-.72,1.03,.2,.21,.32,.5,.31,.8,0,.24-.09,.46-.23,.65,.32,.18,.53,.52,.52,.91,0,.12-.03,.23-.07,.34,.48,.05,.83,.46,.82,.94,0,.05,0,.09-.01,.14,.05,0,.1-.01,.16-.01,.34,0,.63,.25,.7,.57,.11-.07,.24-.11,.38-.11,.31,0,.56,.22,.63,.51,.12-.07,.26-.07,.38-.02,.04-.23,.15-.45,.3-.63-.05-.04-.09-.09-.12-.14-.06-.12-.06-.27,0-.39-.36-.08-.58-.44-.5-.8,.03-.12,.09-.23,.18-.32-.15-.07-.28-.19-.36-.34-.19-.36-.04-.81,.32-1,.02-.01,.04-.02,.06-.03-.02,0-.04,.02-.06,.03-.08-.07-.15-.16-.2-.26-.23-.45-.06-1,.39-1.23,.07-.04,.15-.07,.23-.08h0c-.26-.5-.06-1.12,.44-1.37,.17-.09,.36-.13,.55-.11-.03-.44,.21-.85,.6-1.05,.02,0,.04-.02,.06-.03-.05-.06-.09-.13-.11-.21-.13,.09-.29,.14-.45,.13-.27,0-.53-.16-.66-.4Zm4.57,1.51c-.15,.21-.35,.37-.59,.46-.42,.17-.89,.11-1.26-.14h0c-.09,.27-.29,.51-.55,.65-.21,.11-.45,.15-.68,.11,0,.38-.22,.72-.55,.89-.1,.05-.21,.09-.33,.11,.18,.44,0,.95-.43,1.17-.04,.02-.08,.04-.13,.06,.03,.04,.06,.08,.09,.13,.15,.3,.08,.67-.17,.89,.12,.06,.22,.16,.28,.28,.14,.27,.08,.6-.15,.8,.06,.04,.12,.1,.15,.16,.02,.03,.03,.07,.04,.1,.22-.06,.45-.07,.67-.02,0-.05,.03-.1,.06-.14,.07-.12,.2-.19,.34-.19-.11-.35,.08-.72,.43-.84,.12-.04,.25-.04,.37-.01-.02-.17,.02-.34,.11-.48,.22-.34,.67-.44,1.01-.23,0,0,0,0,0,0,.02-.11,.07-.21,.13-.31,.27-.43,.83-.55,1.26-.28,0,0,0,0,0,0,.07,.04,.13,.09,.18,.15,.3-.48,.93-.62,1.41-.31h0c.16,.1,.29,.25,.37,.42,.35-.24,.83-.26,1.21-.02,.08,.05,.15,.11,.21,.17,.02-.04,.05-.07,.08-.11-.14-.08-.26-.19-.33-.34-.13-.24-.11-.54,.03-.77-.24-.07-.44-.23-.55-.45-.1-.19-.13-.41-.08-.62-.45,.11-.91-.1-1.12-.51-.06-.11-.09-.23-.1-.36-.52,.25-1.14,.06-1.43-.43ZM5.25,7.37c0,.16-.04,.32-.12,.46-.15,.23-.41,.37-.68,.36,.06,.23,.03,.49-.11,.71-.12,.18-.29,.32-.5,.38,.31,.32,.37,.83,.12,1.23-.07,.1-.15,.2-.26,.27,.48,.32,.63,.95,.35,1.45,.25,.02,.49,.12,.69,.28,.35,.27,.55,.71,.51,1.15,.28-.06,.58-.02,.84,.15,.2,.13,.35,.31,.44,.53,.33-.18,.73-.17,1.05,.03,.1,.06,.19,.14,.26,.23,.29-.38,.82-.48,1.23-.22,.04,.03,.08,.05,.11,.09,.02-.05,.04-.1,.07-.14,.18-.28,.53-.41,.85-.31,0-.13,.03-.27,.1-.38,.16-.25,.48-.37,.76-.27,0-.16,.1-.31,.25-.37-.16-.14-.28-.32-.36-.52h0c-.07,.04-.16,.07-.25,.07-.14,0-.27-.07-.34-.19-.24,.27-.66,.3-.94,.06-.09-.08-.16-.18-.19-.3-.13,.1-.3,.15-.47,.15-.4,0-.73-.34-.72-.75,0,0,0,0,0,0-.11,.04-.22,.05-.33,.05-.51-.01-.91-.43-.89-.94,0-.08,.01-.16,.04-.24h0c-.56-.01-1.01-.48-.99-1.04,0,0,0,0,0,0,0-.19,.06-.38,.17-.53-.4-.19-.65-.59-.64-1.03,0-.12,.03-.24,.07-.36-.03,0-.07-.01-.1-.02Zm11.13,2.13c-.29,.38-.82,.48-1.23,.22-.04-.02-.08-.05-.11-.08-.02,.05-.04,.1-.07,.14-.18,.28-.53,.41-.85,.3,0,.14-.03,.27-.1,.39-.16,.26-.47,.37-.76,.28,0,.08-.02,.15-.06,.21-.02,.03-.05,.06-.07,.09,.15,.16,.26,.35,.31,.56,.06-.03,.12-.04,.19-.04,.14,0,.27,.08,.34,.19,.24-.28,.66-.3,.94-.06,.09,.08,.16,.19,.2,.3,.13-.1,.3-.16,.47-.15,.41,0,.73,.35,.72,.76,0,0,0,0,0,0h0c.1-.04,.22-.06,.33-.06,.51,.01,.91,.43,.9,.93,0,0,0,0,0,0,0,.08-.01,.16-.04,.24,.56,.02,1.01,.48,.99,1.05,0,.19-.06,.38-.17,.53,.4,.18,.66,.59,.65,1.03,0,.12-.03,.25-.08,.36h0s.1,.01,.1,.01c0-.16,.04-.32,.12-.46,.15-.23,.41-.37,.68-.36-.06-.24-.02-.5,.11-.71,.12-.18,.3-.31,.5-.37-.32-.33-.37-.84-.12-1.23,.07-.11,.16-.2,.26-.27-.48-.32-.63-.95-.35-1.45-.25-.02-.49-.12-.7-.27h0c-.35-.28-.55-.71-.51-1.16-.29,.07-.59,.02-.84-.15-.2-.13-.35-.31-.44-.53-.33,.19-.73,.18-1.05-.03-.1-.06-.19-.14-.26-.24Zm-.09,3.12v.07s0-.04,0-.07Zm-2.86-.26c-.07,.23-.19,.43-.36,.6,.08,.04,.15,.1,.19,.19,.06,.12,.06,.27,0,.4,.36,.08,.58,.44,.5,.8-.03,.12-.09,.23-.17,.32,.15,.07,.28,.19,.36,.34,.19,.36,.04,.81-.32,.99,.08,.07,.15,.16,.2,.26,.23,.45,.06,1-.39,1.23,0,0,0,0-.01,0-.07,.04-.15,.06-.22,.08h0c.26,.5,.06,1.12-.44,1.38,0,0,0,0,0,0-.17,.09-.36,.13-.55,.11,.03,.46-.24,.9-.66,1.08,.05,.06,.09,.13,.11,.21,0,0,0,0,0,0h0c.13-.09,.29-.13,.46-.13,.27,0,.52,.15,.66,.39,.17-.18,.42-.28,.66-.27,.22,0,.43,.09,.59,.24,.12-.44,.52-.75,.98-.74,.12,0,.25,.03,.36,.08v.02c.01-.58,.48-1.05,1.06-1.07-.11-.23-.15-.48-.12-.74,.06-.46,.34-.84,.73-1.03h0c-.21-.21-.32-.5-.31-.79,0-.24,.09-.47,.23-.65-.44-.25-.63-.78-.45-1.25-.48-.05-.83-.46-.82-.93,0-.05,0-.1,.01-.14-.05,.01-.1,.02-.16,.02-.34-.01-.62-.25-.7-.57-.11,.08-.25,.12-.39,.11-.3,0-.56-.22-.63-.51-.07,.04-.14,.06-.22,.05-.06,0-.12-.02-.18-.05h0Zm-.96,.92c-.11,.03-.22,.04-.34,.04-.11,0-.22-.01-.32-.04,.02,.1,0,.21-.06,.3-.08,.12-.2,.19-.34,.19,.11,.35-.09,.72-.44,.83-.12,.04-.24,.04-.35,.01,.02,.17-.02,.34-.11,.48-.22,.34-.68,.44-1.02,.22-.02,.11-.07,.21-.13,.31-.27,.43-.84,.55-1.26,.28,0,0,0,0,0,0-.07-.04-.13-.09-.18-.15h0c-.3,.48-.93,.62-1.41,.31-.16-.1-.29-.25-.37-.42-.36,.24-.83,.26-1.21,.02-.08-.05-.15-.11-.21-.17-.02,.04-.05,.07-.08,.1,.14,.07,.26,.19,.34,.34,.12,.24,.11,.54-.03,.77,.24,.07,.44,.23,.55,.45,.1,.19,.13,.41,.07,.62,.45-.11,.91,.1,1.12,.51,.06,.11,.09,.23,.1,.35,.52-.25,1.14-.07,1.43,.43,.15-.21,.35-.37,.59-.46,.43-.17,.9-.1,1.26,.14,.09-.28,.29-.52,.55-.65,.21-.11,.45-.15,.68-.11,0-.38,.22-.72,.55-.89,.1-.05,.22-.09,.33-.1-.19-.44,0-.95,.43-1.17,.04-.02,.09-.04,.13-.05-.03-.04-.07-.09-.09-.13-.15-.3-.08-.66,.17-.89-.12-.06-.22-.16-.28-.28-.14-.27-.07-.6,.15-.8-.06-.04-.12-.1-.15-.16-.04-.07-.06-.16-.05-.24Z"/></svg>