<?xml version="1.0" encoding="UTF-8"?><svg id="Ebene_1" xmlns="http://www.w3.org/2000/svg" viewBox="0 0 1024 1024"><defs><style>.cls-1{fill:#f07900;}.cls-2{fill:#f8a145;}</style></defs><path class="cls-2" d="M248.36,637.21H24.99c-5.5,0-7.75-3.9-5-8.66l101.68-176.12,10-17.32,101.68-176.12c2.75-4.76,7.25-4.76,10,0l101.68,176.12,10,17.32,101.68,176.12c2.75,4.76,.5,8.66-5,8.66H248.36Z"/><path class="cls-2" d="M654.81,511.08h-235.91c-5.5,0-7.75-3.9-5-8.66l107.95-186.98,10-17.32,107.95-186.98c2.75-4.76,7.25-4.76,10,0l107.95,186.98,10,17.32,107.95,186.98c2.75,4.76,.5,8.66-5,8.66h-215.91Z"/><path class="cls-2" d="M389.07,254.12h145.37c5.5,0,7.75,3.9,5,8.66l-62.68,108.57-10,17.32-62.68,108.57c-2.75,4.76-7.25,4.76-10,0l-62.68-108.57-10-17.32-62.68-108.57c-2.75-4.76-.5-8.66,5-8.66h125.37Z"/><path class="cls-1" d="M542.67,519.86h145.37c5.5,0,7.75,3.9,5,8.66l-62.68,108.57-10,17.32-62.68,108.57c-2.75,4.76-7.25,4.76-10,0l-62.68-108.57-10-17.32-62.68-108.57c-2.75-4.76-.5-8.66,5-8.66h125.37Z"/><path class="cls-2" d="M703.96,777.35h-132.34c-5.5,0-7.75-3.9-5-8.66l56.17-97.29,10-17.32,56.17-97.29c2.75-4.76,7.25-4.76,10,0l56.17,97.29,10,17.32,56.17,97.29c2.75,4.76,.5,8.66-5,8.66h-112.34Z"/><path class="cls-2" d="M439.19,243.37h-123.17c-5.5,0-7.75-3.9-5-8.66l51.59-89.35,10-17.32,51.59-89.35c2.75-4.76,7.25-4.76,10,0l51.59,89.35,10,17.32,51.59,89.35c2.75,4.76,.5,8.66-5,8.66h-103.17Z"/><path class="cls-1" d="M281.27,647.94h169.97c5.5,0,7.75,3.9,5,8.66l-74.99,129.88-10,17.32-74.99,129.88c-2.75,4.76-7.25,4.76-10,0l-74.99-129.88-10-17.32-74.99-129.88c-2.75-4.76-.5-8.66,5-8.66h149.97Z"/><path class="cls-1" d="M878.85,362.61h82.16c5.5,0,7.75,3.9,5,8.66l-31.08,53.83-10,17.32-31.08,53.83c-2.75,4.76-7.25,4.76-10,0l-31.08-53.83-10-17.32-31.08-53.83c-2.75-4.76-.5-8.66,5-8.66h62.16Z"/><path class="cls-2" d="M326.35,27.98h82.16c5.5,0,7.75,3.9,5,8.66l-31.08,53.83-10,17.32-31.08,53.83c-2.75,4.76-7.25,4.76-10,0l-31.08-53.83-10-17.32-31.08-53.83c-2.75-4.76-.5-8.66,5-8.66h62.16Z"/><path class="cls-1" d="M771.24,786.23h82.16c5.5,0,7.75,3.9,5,8.66l-31.08,53.83-10,17.32-31.08,53.83c-2.75,4.76-7.25,4.76-10,0l-31.08-53.83c-2.75-4.76-7.25-12.56-10-17.32l-31.08-53.83c-2.75-4.76-.5-8.66,5-8.66h62.16Z"/><path class="cls-2" d="M734.63,992.02h-82.16c-5.5,0-7.75-3.9-5-8.66l31.08-53.83,10-17.32,31.08-53.83c2.75-4.76,7.25-4.76,10,0l31.08,53.83,10,17.32,31.08,53.83c2.75,4.76,.5,8.66-5,8.66h-62.16Z"/><path class="cls-2" d="M480.93,796.23h-82.16c-5.5,0-7.75-3.9-5-8.66l31.08-53.83,10-17.32,31.08-53.83c2.75-4.76,7.25-4.76,10,0l31.08,53.83,10,17.32,31.08,53.83c2.75,4.76,.5,8.66-5,8.66h-62.16Z"/></svg>