<?xml version="1.0" encoding="UTF-8"?><svg id="Ebene_1" xmlns="http://www.w3.org/2000/svg" viewBox="0 0 1024 1080"><defs><style>.cls-1{fill:#f07900;}.cls-2{fill:#f8a145;}.cls-3{fill:#333;}</style></defs><path class="cls-2" d="M337.13,357.58h-20s-220.13,0-220.13,0c-5.5,0-7.75,3.9-5,8.66l110.06,190.63,10,17.32,110.06,190.63c2.75,4.76,7.25,4.76,10,0l110.06-190.63,10-17.32,110.06-190.63c2.75-4.76,.5-8.66-5-8.66h-220.13Z"/><path class="cls-2" d="M638.89,630.99c5.5,0,14.5,0,20,0h206.91c5.5,0,7.75-3.9,5-8.66l-103.46-179.19c-2.75-4.76-7.25-12.56-10-17.32l-103.46-179.19c-2.75-4.76-7.25-4.76-10,0l-103.46,179.19c-2.75,4.76-7.25,12.56-10,17.32l-103.46,179.19c-2.75,4.76-.5,8.66,5,8.66h206.91Z"/><path class="cls-3" d="M425.24,347.41h20s113.57,0,113.57,0c5.5,0,7.75-3.9,5-8.66l-56.79-98.36-10-17.32-56.79-98.36c-2.75-4.76-7.25-4.76-10,0l-56.79,98.36-10,17.32-56.79,98.36c-2.75,4.76-.5,8.66,5,8.66h113.57Z"/><path class="cls-3" d="M104.48,970.44c5.5,0,14.5,0,20,0h78.19c5.5,0,7.75-3.9,5-8.66l-39.09-67.71c-2.75-4.76-7.25-12.56-10-17.32l-39.09-67.71c-2.75-4.76-7.25-4.76-10,0l-39.09,67.71-10,17.32-39.09,67.71c-2.75,4.76-.5,8.66,5,8.66H104.48Z"/><path class="cls-3" d="M418.61,864.8c-5.5,0-14.5,0-20,0h-99.05c-5.5,0-7.75,3.9-5,8.66l49.53,85.78c2.75,4.76,7.25,12.56,10,17.32l49.53,85.78c2.75,4.76,7.25,4.76,10,0l49.53-85.78,10-17.32,49.53-85.78c2.75-4.76,.5-8.66-5-8.66h-99.05Z"/><path class="cls-3" d="M162.1,979.1c-5.5,0-14.5,0-20,0h-37.14c-5.5,0-7.75,3.9-5,8.66l18.57,32.17c2.75,4.76,7.25,12.56,10,17.32l18.57,32.17c2.75,4.76,7.25,4.76,10,0l18.57-32.17,10-17.32,18.57-32.17c2.75-4.76,.5-8.66-5-8.66h-37.14Z"/><path class="cls-3" d="M271.96,1012.41c5.5,0,14.5,0,20,0h60.32c5.5,0,7.75-3.9,5-8.66l-30.16-52.24-10-17.32-30.16-52.24c-2.75-4.76-7.25-4.76-10,0l-30.16,52.24-10,17.32-30.16,52.24c-2.75,4.76-.5,8.66,5,8.66h60.32Z"/><path class="cls-3" d="M566.93,162.33h20s72.74,0,72.74,0c5.5,0,7.75-3.9,5-8.66l-36.37-62.99-10-17.32-36.37-62.99c-2.75-4.76-7.25-4.76-10,0l-36.37,62.99c-2.75,4.76-7.25,12.56-10,17.32l-36.37,62.99c-2.75,4.76-.5,8.66,5,8.66h72.74Z"/><path class="cls-3" d="M691.18-25c-5.5,0-14.5,0-20,0h-87.76c-5.5,0-7.75,3.9-5,8.66l43.88,76,10,17.32,43.88,76c2.75,4.76,7.25,4.76,10,0l43.88-76c2.75-4.76,7.25-12.56,10-17.32l43.88-76c2.75-4.76,.5-8.66-5-8.66h-87.76Z"/><path class="cls-3" d="M823.44,227c-5.5,0-14.5,0-20,0h-137.47c-5.5,0-7.75,3.9-5,8.66l68.74,119.05c2.75,4.76,7.25,12.56,10,17.32l68.74,119.05c2.75,4.76,7.25,4.76,10,0l68.74-119.05c2.75-4.76,7.25-12.56,10-17.32l68.74-119.05c2.75-4.76,.5-8.66-5-8.66h-137.47Z"/><path class="cls-3" d="M756.1,217.24c5.5,0,14.5,0,20,0h85.9c5.5,0,7.75-3.9,5-8.66l-42.95-74.39-10-17.32-42.95-74.39c-2.75-4.76-7.25-4.76-10,0l-42.95,74.39c-2.75,4.76-7.25,12.56-10,17.32l-42.95,74.39c-2.75,4.76-.5,8.66,5,8.66h85.9Z"/><path class="cls-3" d="M889.74,24.45h-20s-87.04,0-87.04,0c-5.5,0-7.75,3.9-5,8.66l43.52,75.38c2.75,4.76,7.25,12.56,10,17.32l43.52,75.38c2.75,4.76,7.25,4.76,10,0l43.52-75.38c2.75-4.76,7.25-12.56,10-17.32l43.52-75.38c2.75-4.76,.5-8.66-5-8.66h-87.04Z"/><path class="cls-3" d="M850.55,14.33c5.5,0,14.5,0,20,0h61.23c5.5,0,7.75-3.9,5-8.66l-30.62-53.03c-2.75-4.76-7.25-12.56-10-17.32l-30.62-53.03c-2.75-4.76-7.25-4.76-10,0l-30.62,53.03c-2.75,4.76-7.25,12.56-10,17.32l-30.62,53.03c-2.75,4.76-.5,8.66,5,8.66h61.23Z"/><path class="cls-3" d="M400.26,854.34c5.5,0,14.5,0,20,0h96.96c5.5,0,7.75-3.9,5-8.66l-48.48-83.97-10-17.32-48.48-83.97c-2.75-4.76-7.25-4.76-10,0l-48.48,83.97-10,17.32-48.48,83.97c-2.75,4.76-.5,8.66,5,8.66h96.96Z"/><path class="cls-1" d="M584.24,640.89c-5.5,0-14.5,0-20,0h-137.17c-5.5,0-7.75,3.9-5,8.66l68.58,118.79,10,17.32,68.58,118.79c2.75,4.76,7.25,4.76,10,0l68.58-118.79c2.75-4.76,7.25-12.56,10-17.32l68.58-118.79c2.75-4.76,.5-8.66-5-8.66h-137.17Z"/><path class="cls-1" d="M587.41,172h-20s-77.17,0-77.17,0c-5.5,0-7.75,3.9-5,8.66l38.59,66.83,10,17.32,38.59,66.83c2.75,4.76,7.25,4.76,10,0l38.59-66.83c2.75-4.76,7.25-12.56,10-17.32l38.59-66.83c2.75-4.76,.5-8.66-5-8.66h-77.17Z"/><path class="cls-3" d="M229.25,790.33c-5.5,0-14.5,0-20,0h-78.52c-5.5,0-7.75,3.9-5,8.66l39.26,68,10,17.32,39.26,68c2.75,4.76,7.25,4.76,10,0l39.26-68,10-17.32,39.26-68c2.75-4.76,.5-8.66-5-8.66h-78.52Z"/><path class="cls-1" d="M212.99,781.55c5.5,0,14.5,0,20,0h77.51c5.5,0,7.75-3.9,5-8.66l-38.75-67.12c-2.75-4.76-7.25-12.56-10-17.32l-38.75-67.12c-2.75-4.76-7.25-4.76-10,0l-38.75,67.12-10,17.32-38.75,67.12c-2.75,4.76-.5,8.66,5,8.66h77.51Z"/></svg>