<?xml version="1.0" encoding="utf-8"?>
<!-- Generator: Adobe Illustrator 27.6.1, SVG Export Plug-In . SVG Version: 6.00 Build 0)  -->
<svg version="1.1" xmlns="http://www.w3.org/2000/svg" xmlns:xlink="http://www.w3.org/1999/xlink" x="0px" y="0px"
	 viewBox="0 0 1024 1024" style="enable-background:new 0 0 1024 1024;" xml:space="preserve">
<style type="text/css">
	.st0{fill:#F07900;}
	.st1{fill:#F8A145;}
</style>
<g id="Ebene_1">
	<path class="st0" d="M186,819.1c5,0,13.1,0,18.1,0h86c5,0,7-3.5,4.5-7.8l-43-74.4l-9.1-15.7l-43-74.4c-2.5-4.3-6.6-4.3-9.1,0
		l-43,74.4l-9.1,15.7l-43,74.4c-2.5,4.3-0.5,7.8,4.5,7.8H186L186,819.1z"/>
	<path class="st0" d="M922.4,272.6h-20h-93.1c-5.5,0-7.8,3.9-5,8.7l46.5,80.6c2.8,4.8,7.2,12.6,10,17.3l46.5,80.6
		c2.8,4.8,7.2,4.8,10,0l46.5-80.6c2.8-4.8,7.2-12.6,10-17.3l46.5-80.6c2.8-4.8,0.5-8.7-5-8.7H922.4L922.4,272.6z"/>
</g>
<g id="Ebene_2">
	<path class="st1" d="M318.5,272.6h-20.7H8.7c-5.7,0-8,4-5.2,9L148,531.9c2.9,4.9,7.5,13,10.4,18l144.5,250.3
		c2.9,4.9,7.5,4.9,10.4,0l144.5-250.3l10.4-18l144.5-250.3c2.9-4.9,0.5-9-5.2-9L318.5,272.6L318.5,272.6z"/>
	<path class="st1" d="M699.2,631.6c5.5,0,14.5,0,20,0h262.3c5.5,0,7.8-3.9,5-8.7L855.3,395.8c-2.8-4.8-7.2-12.6-10-17.3L714.2,151.3
		c-2.8-4.8-7.2-4.8-10,0L573,378.5c-2.8,4.8-7.2,12.6-10,17.3L431.8,623c-2.8,4.8-0.5,8.7,5,8.7H699.2z"/>
	<path class="st1" d="M486.3,261.1h17.2h106.3c4.7,0,6.7-3.4,4.3-7.5l-53.1-92c-2.4-4.1-6.2-10.8-8.6-14.9l-53.1-92
		c-2.4-4.1-6.2-4.1-8.6,0l-53.1,92l-8.6,14.9l-53.1,92c-2.4,4.1-0.4,7.5,4.3,7.5H486.3L486.3,261.1z"/>
	<path class="st1" d="M404.9,898.9c5.5,0,14.5,0,20,0h123.5c5.5,0,7.8-3.9,5-8.7l-61.7-106.9l-10-17.3L420,659
		c-2.8-4.8-7.2-4.8-10,0L348.2,766l-10,17.3l-61.7,106.9c-2.8,4.8-0.5,8.7,5,8.7H404.9L404.9,898.9z"/>
	<path class="st1" d="M629.4,643.7c-5.5,0-14.5,0-20,0H436.7c-5.5,0-7.8,3.9-5,8.7L518,801.9c2.8,4.8,7.2,12.6,10,17.3l86.4,149.6
		c2.8,4.8,7.2,4.8,10,0l86.4-149.6c2.8-4.8,7.2-12.6,10-17.3l86.4-149.6c2.8-4.8,0.5-8.7-5-8.7L629.4,643.7L629.4,643.7z"/>
	<path class="st1" d="M638.6,86.5h-17.2h-80.1c-4.7,0-6.7,3.4-4.3,7.5l40.1,69.4c2.4,4.1,6.2,10.8,8.6,14.9l40.1,69.4
		c2.4,4.1,6.2,4.1,8.6,0l40.1-69.4c2.4-4.1,6.2-10.8,8.6-14.9L723,93.9c2.4-4.1,0.4-7.5-4.3-7.5L638.6,86.5L638.6,86.5z"/>
	<path class="st1" d="M233.6,830.7c-5.5,0-14.5,0-20,0h-52.7c-5.5,0-7.8,3.9-5,8.7l26.3,45.6c2.8,4.8,7.2,12.6,10,17.3l26.3,45.6
		c2.8,4.8,7.2,4.8,10,0l26.3-45.6l10-17.3l26.3-45.6c2.8-4.8,0.5-8.7-5-8.7H233.6L233.6,830.7z"/>
</g>
</svg>
