<?xml version="1.0" encoding="UTF-8"?><svg id="Ebene_1" xmlns="http://www.w3.org/2000/svg" viewBox="0 0 1024 1024"><defs><style>.cls-1{fill:#f07900;}.cls-2{fill:#f8a145;}</style></defs><polygon class="cls-2" points="240.36 642.21 16.99 642.21 128.67 448.76 240.36 255.32 352.04 448.76 463.73 642.21 240.36 642.21"/><polygon class="cls-2" points="668.81 508.07 432.9 508.07 550.86 303.78 668.81 99.48 786.76 303.78 904.71 508.07 668.81 508.07"/><polygon class="cls-2" points="409.07 248.12 554.44 248.12 481.75 374.01 409.07 499.9 336.39 374.01 263.7 248.12 409.07 248.12"/><polygon class="cls-1" points="571.67 530.86 717.03 530.86 644.35 656.75 571.67 782.64 498.99 656.75 426.3 530.86 571.67 530.86"/><polygon class="cls-2" points="728.96 785.35 596.62 785.35 662.79 670.74 728.96 556.13 795.13 670.74 861.3 785.35 728.96 785.35"/><polygon class="cls-2" points="433.19 227.37 310.02 227.37 371.61 120.7 433.19 14.03 494.78 120.7 556.37 227.37 433.19 227.37"/><polygon class="cls-1" points="293.27 663.94 463.25 663.94 378.26 811.14 293.27 958.35 208.28 811.14 123.3 663.94 293.27 663.94"/><polygon class="cls-1" points="924.85 364.61 1007.01 364.61 965.93 435.77 924.85 506.92 883.77 435.77 842.69 364.61 924.85 364.61"/><polygon class="cls-2" points="332.35 9.98 414.51 9.98 373.43 81.14 332.35 152.29 291.27 81.14 250.19 9.98 332.35 9.98"/><polygon class="cls-1" points="776.24 802.23 858.4 802.23 817.32 873.38 776.24 944.54 735.16 873.38 694.08 802.23 776.24 802.23"/><polygon class="cls-2" points="710.63 1014.02 628.47 1014.02 669.55 942.86 710.63 871.71 751.71 942.86 792.79 1014.02 710.63 1014.02"/><polygon class="cls-2" points="481.93 815.23 399.77 815.23 440.85 744.08 481.93 672.92 523.01 744.08 564.09 815.23 481.93 815.23"/></svg>