<?xml version="1.0" encoding="UTF-8"?><svg id="Ebene_1" xmlns="http://www.w3.org/2000/svg" viewBox="0 0 1024 1024"><defs><style>.cls-1{fill:#f07900;}.cls-2{fill:#f8a145;}</style></defs><path class="cls-2" d="M314.19,300.87h-20s-278.78,0-278.78,0c-5.5,0-7.75,3.9-5,8.66l139.39,241.43c2.75,4.76,7.25,12.56,10,17.32l139.39,241.43c2.75,4.76,7.25,4.76,10,0l139.39-241.43,10-17.32,139.39-241.43c2.75-4.76,.5-8.66-5-8.66H314.19Z"/><path class="cls-2" d="M695.23,641.06c5.5,0,14.5,0,20,0h262.34c5.5,0,7.75-3.9,5-8.66l-131.17-227.19c-2.75-4.76-7.25-12.56-10-17.32l-131.17-227.19c-2.75-4.76-7.25-4.76-10,0l-131.17,227.19c-2.75,4.76-7.25,12.56-10,17.32l-131.17,227.19c-2.75,4.76-.5,8.66,5,8.66h262.34Z"/><path class="cls-2" d="M449.33,288.53h20s123.47,0,123.47,0c5.5,0,7.75-3.9,5-8.66l-61.73-106.93c-2.75-4.76-7.25-12.56-10-17.32l-61.73-106.93c-2.75-4.76-7.25-4.76-10,0l-61.73,106.93-10,17.32-61.73,106.93c-2.75,4.76-.5,8.66,5,8.66h123.47Z"/><path class="cls-1" d="M401.01,908.31c5.5,0,14.5,0,20,0h123.47c5.5,0,7.75-3.9,5-8.66l-61.73-106.93-10-17.32-61.73-106.93c-2.75-4.76-7.25-4.76-10,0l-61.73,106.93-10,17.32-61.73,106.93c-2.75,4.76-.5,8.66,5,8.66h123.47Z"/><path class="cls-2" d="M625.48,653.12c-5.5,0-14.5,0-20,0h-172.74c-5.5,0-7.75,3.9-5,8.66l86.37,149.6c2.75,4.76,7.25,12.56,10,17.32l86.37,149.6c2.75,4.76,7.25,4.76,10,0l86.37-149.6c2.75-4.76,7.25-12.56,10-17.32l86.37-149.6c2.75-4.76,.5-8.66-5-8.66h-172.74Z"/><path class="cls-1" d="M623.94,86.83h-20s-93.08,0-93.08,0c-5.5,0-7.75,3.9-5,8.66l46.54,80.61c2.75,4.76,7.25,12.56,10,17.32l46.54,80.61c2.75,4.76,7.25,4.76,10,0l46.54-80.61c2.75-4.76,7.25-12.56,10-17.32l46.54-80.61c2.75-4.76,.5-8.66-5-8.66h-93.08Z"/><path class="cls-2" d="M229.67,840.16c-5.5,0-14.5,0-20,0h-52.67c-5.5,0-7.75,3.9-5,8.66l26.34,45.62c2.75,4.76,7.25,12.56,10,17.32l26.34,45.62c2.75,4.76,7.25,4.76,10,0l26.34-45.62,10-17.32,26.34-45.62c2.75-4.76,.5-8.66-5-8.66h-52.67Z"/><path class="cls-2" d="M169.17,828.55c5.5,0,14.5,0,20,0h94.84c5.5,0,7.75-3.9,5-8.66l-47.42-82.13-10-17.32-47.42-82.13c-2.75-4.76-7.25-4.76-10,0l-47.42,82.13-10,17.32-47.42,82.13c-2.75,4.76-.5,8.66,5,8.66h94.84Z"/><path class="cls-1" d="M918.51,282.03h-20s-93.08,0-93.08,0c-5.5,0-7.75,3.9-5,8.66l46.54,80.61c2.75,4.76,7.25,12.56,10,17.32l46.54,80.61c2.75,4.76,7.25,4.76,10,0l46.54-80.61c2.75-4.76,7.25-12.56,10-17.32l46.54-80.61c2.75-4.76,.5-8.66-5-8.66h-93.08Z"/></svg>